<svg xmlns="http://www.w3.org/2000/svg" fill="none" viewBox="0 0 313 143" height="143" width="313">
<path fill="#023E55" d="M47.6302 59.9548C41.7006 59.9548 38.1461 55.3429 38.1461 50.6008C38.1461 46.6477 39.7241 43.0932 41.4403 40.7181C40.1227 40.4579 39.3337 40.4579 37.4873 40.4579C26.6855 40.4579 17.9822 47.7051 17.9822 65.2336C17.9822 80.7856 26.6773 90.6683 37.2189 90.6683C43.6772 90.6683 48.8178 88.952 55.268 86.8454L56.057 88.4233C48.1508 95.8008 39.8461 99.7538 30.4921 99.7538C13.5004 99.7538 0.193359 87.3659 0.193359 69.0484C0.193359 50.7309 13.7688 35.8459 33.7945 35.8459C47.6302 35.8459 56.4555 42.4344 56.4555 50.0802C56.4555 55.4811 52.901 59.9629 47.6302 59.9629V59.9548Z"></path>
<path fill="#023E55" d="M103.82 55.3427C98.8098 55.3427 94.995 52.0485 93.8074 46.3792C89.7242 46.6395 87.219 48.3557 84.8439 51.2514V92.6284L93.9376 95.7925V97.6389H60.0762V95.7925L67.9823 92.6284V48.4859L60.2063 42.296V40.9783L83.6645 35.4473L84.1932 35.8458L83.6645 47.9653L84.1932 48.2256C90.1228 39.4003 97.3701 35.7075 103.039 35.7075C108.709 35.7075 112.792 39.5305 112.792 45.4601C112.792 50.861 109.368 55.3427 103.828 55.3427H103.82Z"></path>
<path fill="#023E55" d="M132.108 64.5664C132.239 80.639 135.663 90.6599 150.686 90.6599C157.275 90.6599 162.806 89.4724 170.98 87.2355L171.769 88.9518C163.863 95.1417 153.452 99.7536 145.017 99.7536C125.91 99.7536 114.312 87.3657 114.312 69.0482C114.312 50.7307 129.864 35.8457 145.676 35.8457C164.123 35.8457 172.819 48.1035 172.428 64.5746H132.108V64.5664ZM155.827 59.2957C155.567 46.1188 152.004 40.0591 144.757 40.0591C137.509 40.0591 132.897 48.2255 132.239 60.7435L155.827 59.2957Z"></path>
<path fill="#023E55" d="M247.659 93.686V95.0037L223.94 99.8759L223.412 99.6156L222.354 92.4985L221.825 92.2382L219.849 93.8161C215.237 97.5089 209.836 99.7457 204.167 99.7457C190.461 99.7457 178.073 89.8631 178.073 69.5691C178.073 49.275 193.495 35.8379 211.016 35.8379C215.627 35.8379 218.792 36.3666 221.956 37.2857V14.6247L213.391 8.43483V7.11714L238.297 0L238.955 0.39856V90.3999L247.651 93.6941L247.659 93.686ZM213.529 90.9205C216.164 90.9205 219.458 89.7329 221.964 88.155V46.7779C218.67 42.5646 215.636 40.3196 209.844 40.3196C203.126 40.3196 196.139 46.9081 196.139 65.3557C196.139 82.3555 202.329 90.9205 213.529 90.9205Z"></path>
<path fill="#023E55" d="M279.78 99.7538C258.567 99.7538 248.944 84.7306 248.944 67.7307C248.944 51.9185 260.275 35.8459 281.358 35.8459C302.441 35.8459 312.193 50.8692 312.193 67.7307C312.193 83.543 300.993 99.7538 279.78 99.7538ZM280.569 40.0593C271.085 40.0593 266.993 51.2596 266.993 67.7307C266.993 84.2019 271.077 95.4022 280.569 95.4022C290.061 95.4022 294.144 84.2019 294.144 67.7307C294.144 51.2596 290.061 40.0593 280.569 40.0593Z"></path>
<path fill="#023E55" d="M83.9273 141.938V121.946H91.6273C93.9513 121.946 95.1553 122.282 96.1633 123.178C97.1713 124.074 97.7593 125.558 97.7593 127.294C97.7593 129.254 97.1713 130.542 95.8553 131.494C95.9393 131.55 96.0233 131.634 96.1353 131.69C96.8913 132.278 97.1433 132.558 97.4233 133.09C97.8993 133.986 98.1233 135.106 98.1233 136.394C98.1233 138.41 97.5073 139.95 96.3033 140.874C95.2953 141.658 94.1753 141.938 92.0193 141.938H83.9273ZM87.5673 130.262H91.3753C93.2793 130.262 94.1193 129.45 94.1193 127.574C94.1193 125.698 93.2793 124.886 91.3753 124.886H87.5673V130.262ZM87.5673 138.998H91.7673C93.6713 138.998 94.4833 138.13 94.4833 136.114C94.4833 134.098 93.6433 133.202 91.7673 133.202H87.5673V138.998ZM110.716 141.938V121.946H123.036V124.942H114.356V130.318H121.72V133.314H114.356V138.942H123.12V141.938H110.716ZM147.362 137.99H139.802L138.514 141.938H134.538L141.79 121.946H145.346L152.598 141.938H148.622L147.362 137.99ZM146.466 135.05L143.582 126.314L140.67 135.05H146.466ZM163.688 121.946H167.356V134.49C167.356 136.254 167.496 137.094 167.888 137.794C168.476 138.858 169.316 139.25 170.912 139.25C172.592 139.25 173.488 138.774 174.048 137.542C174.328 136.898 174.44 136.058 174.44 134.49V121.946H178.108V134.49C178.108 137.43 177.8 138.746 176.876 139.922C175.588 141.518 173.796 142.218 170.912 142.218C167.804 142.218 165.872 141.406 164.668 139.558C163.94 138.466 163.688 137.206 163.688 134.49V121.946ZM195.892 141.938V124.942H190.432V121.946H204.992V124.942H199.56V141.938H195.892ZM222.13 141.938V134.714L215.942 121.946H219.806L223.978 131.102L228.122 121.946H232.014L225.798 134.714V141.938H222.13Z"></path>
</svg>
